<svg xmlns="http://www.w3.org/2000/svg" viewBox="0 0 64 64"><path fill="#FF8000" d="M49.737 14.324A1.002 1.002 0 0 0 49 14H15a1 1 0 0 0-.996.914l-4 46A.997.997 0 0 0 11 62h34a1 1 0 0 0 .996-.914l4-46a.996.996 0 0 0-.259-.762z"/><path fill="#FFF" d="M29 31c-4.411 0-8 3.589-8 8s3.589 8 8 8 8-3.589 8-8-3.589-8-8-8z"/><path fill="#4D4D4D" d="M28 38h2v2h-2zm-4 0h2v2h-2zm8 0h2v2h-2z"/><path fill="#E6E6E6" d="M38 21h-2V8.94A4.945 4.945 0 0 0 31.06 4h-.12A4.945 4.945 0 0 0 26 8.94V21h-2V8.94A6.948 6.948 0 0 1 30.94 2h.119A6.948 6.948 0 0 1 38 8.94V21z"/><path fill="#E6E6E6" d="M23 20h4v2h-4zm12 0h4v2h-4z"/><path fill="#CE6700" d="M49.996 14.914a1 1 0 0 0-1.992 0l-4 46a.998.998 0 0 0 1.596.886l3.4-2.55 3.4 2.55a.997.997 0 0 0 1.085.074 1 1 0 0 0 .511-.96l-4-46z"/><path fill="#E57300" d="M49.996 14.914A1 1 0 0 0 49 14v45.25l3.4 2.55a.997.997 0 0 0 1.085.074 1 1 0 0 0 .511-.96l-4-46z"/></svg>