<svg width="236" height="70" viewBox="0 0 236 70" fill="none" xmlns="http://www.w3.org/2000/svg">
<path fill-rule="evenodd" clip-rule="evenodd" d="M34.1054 57.5467C37.1142 57.6378 40.2527 56.995 42.6955 56.0736C44.268 55.5154 46.721 54.0449 47.9482 52.9439C48.9096 52.079 50.2882 50.7213 50.9698 49.5921C52.1136 47.6891 52.5423 47.154 53.3741 44.7377L54.1789 41.9147C55.5075 41.7684 57.3328 42.1559 58.8462 42.4601C57.578 38.4359 54.7386 38.2601 54.428 38.2729C54.7116 35.8823 54.9594 34.1243 52.5538 32.0481C52.2894 32.818 51.3498 35.7104 50.9763 36.2301C50.2895 35.9298 45.5773 34.5183 40.2681 36.0286C35.4994 37.2785 32.5098 39.7499 29.5395 43.2993C28.8078 44.1719 27.8066 46.0415 27.3753 47.1194C26.7822 48.6066 26.3214 50.1542 26.1853 51.9301C26.1417 52.5127 26.0351 54.3002 26.1853 54.7904C26.65 56.2956 32.7897 57.507 34.1054 57.5467ZM29.4984 53.0555C29.1621 50.0297 31.3789 46.0774 33.3429 43.9742C36.5777 39.9963 45.9983 37.0796 50.8171 40.1182C51.4037 44.7377 46.4527 50.602 42.4015 52.6654C37.9756 55.3063 31.7846 54.023 29.4984 53.0542V53.0555Z" fill="#0DB9BB"/>
<path fill-rule="evenodd" clip-rule="evenodd" d="M39.127 64.0167C44.2615 62.6167 48.323 60.9832 51.9069 57.729C55.1789 54.7596 58.4971 49.1199 59.506 44.8545L55.7 44.014C54.772 48.4052 51.1893 53.2737 47.5233 55.9042C40.5133 60.9319 32.3596 61.9417 23.9043 59.2611C19.3423 57.8149 15.1293 54.5389 12.4928 50.7919C10.2772 47.6378 9.63537 44.8327 9.19123 44.1873L5.68176 45.0932C8.67778 53.7587 13.6147 59.3638 22.2664 62.6526C23.1649 62.9953 25.211 63.6882 25.9966 63.8512C26.3817 65.3615 26.2264 66.6575 27.4086 68.0254C28.2841 69.034 30.5869 68.9583 32.2865 68.9724C33.986 68.9866 36.1643 69.0289 37.4518 68.4681C38.6944 67.7393 38.8125 65.4257 39.127 64.0167Z" fill="#0DB9BB"/>
<path fill-rule="evenodd" clip-rule="evenodd" d="M27.03 32.2226C26.4267 29.2328 23.7233 27.0269 19.8544 27.7943C19.6478 27.4696 19.3756 26.0979 19.0162 25.4589C16.6928 21.3192 11.5018 20.385 8.55841 23.946C7.3274 25.4345 7.18106 27.9034 7.36591 29.7525C6.5508 29.6626 5.21966 29.868 4.1183 30.2388C1.5138 31.1011 -0.305119 34.4144 0.649908 37.6455C1.95665 42.1444 6.9821 43.1543 10.4235 41.5606C10.3991 45.1959 13.408 48.4899 17.3154 47.9766C19.5091 47.693 21.7362 45.9722 22.138 44.4041C22.577 43.1209 22.2073 40.9254 21.4012 39.528C25.7232 39.4766 27.8489 36.2853 27.03 32.2226ZM16.8456 28.3589C16.9662 28.4936 16.5889 32.5306 16.6004 32.922C16.9585 32.8245 17.9482 32.1226 18.4643 31.8287C23.8953 28.7695 24.989 33.5084 24.2586 34.7467C23.3601 36.6484 19.3898 36.5342 16.9906 36.7601C17.1691 37.5428 21.7401 43.8832 17.1036 44.7622C11.7765 45.7733 13.0383 39.0827 13.0743 37.471C10.1553 38.9749 5.79473 41.064 4.02973 36.9936C2.5574 30.892 10.6623 32.795 12.0743 33.6201C10.6032 31.7427 10.1116 30.0977 10.2772 27.5505C10.498 24.3437 16.6261 23.6534 16.8456 28.3589Z" fill="#31688F"/>
<path fill-rule="evenodd" clip-rule="evenodd" d="M34.5149 41.7171C34.1298 41.5324 33.9244 40.8676 34.1079 40.4776C34.2915 40.0875 34.9641 39.7679 35.5405 40.04C37.8618 41.1089 39.8636 42.7655 41.3477 44.8456C42.9188 46.9963 43.8995 49.0353 44.4823 52.3767C44.6222 53.3007 44.1088 53.7151 43.6839 53.7883C43.259 53.8614 42.4554 53.7087 42.3053 52.9606C41.7661 49.8617 41.2206 48.0138 39.7919 46.0582C38.4387 44.1787 36.6203 42.6828 34.5149 41.7171Z" fill="#FFD600"/>
<path fill-rule="evenodd" clip-rule="evenodd" d="M38.5173 40.1362C38.1322 39.9527 37.8626 39.4458 38.1437 38.8016C38.6418 38.0985 39.2374 38.2447 39.6263 38.4295C43.4143 40.226 47.5541 45.6655 48.2652 49.75C48.3371 50.1747 48.2652 50.8356 47.6234 51.0948C46.9444 51.3039 46.1844 50.7766 46.1113 50.3518C45.6312 47.5942 44.2988 45.6399 43.0305 43.9024C41.7623 42.1649 40.4427 41.0485 38.5173 40.1362Z" fill="#FFD600"/>
<path fill-rule="evenodd" clip-rule="evenodd" d="M43.2886 39.0724C43.1927 39.0166 43.1089 38.9422 43.042 38.8537C42.9752 38.7651 42.9267 38.6641 42.8993 38.5566C42.872 38.4491 42.8663 38.3372 42.8827 38.2275C42.899 38.1178 42.9371 38.0124 42.9946 37.9176C43.3553 37.4043 43.8931 37.4979 44.2872 37.6814C47.0393 38.9852 50.011 42.9824 50.5283 45.953C50.7183 46.5946 50.3922 47.0809 49.9673 47.1528C49.5424 47.2247 49.002 46.9475 48.9301 46.5227C48.5669 44.435 45.2345 39.9951 43.2886 39.0724Z" fill="#FFD600"/>
<path fill-rule="evenodd" clip-rule="evenodd" d="M24.4461 22.2521C19.8044 21.7042 16.4477 24.8391 15.268 27.1347C14.1615 29.2879 13.5403 31.8595 13.4902 34.9238C13.4865 35.2056 13.5948 35.4773 13.7915 35.6792C13.9882 35.8811 14.2571 35.9967 14.5389 36.0004C14.8208 36.0041 15.0927 35.8958 15.2946 35.6992C15.4966 35.5026 15.6122 35.2338 15.6159 34.952C15.6711 31.5259 16.6659 27.2618 19.4668 24.7518C20.7274 23.629 22.3435 22.9053 24.4461 22.2521Z" fill="#FFD600"/>
<path d="M33.4879 50.4597C34.0324 50.4597 34.4737 50.0184 34.4737 49.4741C34.4737 48.9299 34.0324 48.4886 33.4879 48.4886C32.9434 48.4886 32.5021 48.9299 32.5021 49.4741C32.5021 50.0184 32.9434 50.4597 33.4879 50.4597Z" fill="#0DB9BB"/>
<path d="M19.2819 22.4241C19.5187 22.4241 19.7107 22.2322 19.7107 21.9955C19.7107 21.7588 19.5187 21.5669 19.2819 21.5669C19.0451 21.5669 18.8531 21.7588 18.8531 21.9955C18.8531 22.2322 19.0451 22.4241 19.2819 22.4241Z" fill="#31688F"/>
<path fill-rule="evenodd" clip-rule="evenodd" d="M21.4449 20.743C21.5297 20.743 21.6126 20.7682 21.6831 20.8153C21.7536 20.8624 21.8086 20.9293 21.841 21.0076C21.8735 21.0859 21.882 21.1721 21.8654 21.2552C21.8489 21.3384 21.8081 21.4148 21.7481 21.4747C21.6881 21.5346 21.6117 21.5755 21.5285 21.592C21.4454 21.6085 21.3592 21.6 21.2808 21.5676C21.2025 21.5352 21.1355 21.4802 21.0884 21.4097C21.0413 21.3393 21.0161 21.2564 21.0161 21.1716C21.0165 21.0581 21.0617 20.9493 21.1421 20.8689C21.2224 20.7886 21.3313 20.7434 21.4449 20.743Z" fill="#31688F"/>
<path fill-rule="evenodd" clip-rule="evenodd" d="M23.9814 20.5416C24.0662 20.5416 24.1491 20.5668 24.2196 20.6139C24.2901 20.661 24.3451 20.7279 24.3775 20.8062C24.41 20.8845 24.4185 20.9707 24.4019 21.0538C24.3854 21.137 24.3446 21.2133 24.2846 21.2733C24.2246 21.3332 24.1482 21.374 24.065 21.3906C23.9819 21.4071 23.8957 21.3986 23.8173 21.3662C23.739 21.3337 23.672 21.2788 23.6249 21.2083C23.5778 21.1378 23.5526 21.055 23.5526 20.9702C23.5524 20.9139 23.5634 20.8581 23.5849 20.806C23.6064 20.7539 23.638 20.7066 23.6778 20.6668C23.7177 20.6269 23.765 20.5954 23.8171 20.5739C23.8692 20.5524 23.925 20.5415 23.9814 20.5416Z" fill="#31688F"/>
<path fill-rule="evenodd" clip-rule="evenodd" d="M26.342 21.5143C26.4268 21.5143 26.5098 21.5395 26.5803 21.5866C26.6509 21.6338 26.7058 21.7008 26.7383 21.7792C26.7707 21.8575 26.7791 21.9438 26.7624 22.027C26.7458 22.1101 26.7048 22.1865 26.6447 22.2464C26.5846 22.3063 26.5081 22.347 26.4249 22.3634C26.3416 22.3798 26.2553 22.3711 26.177 22.3385C26.0987 22.3058 26.0318 22.2507 25.9848 22.1801C25.9379 22.1094 25.913 22.0264 25.9132 21.9416C25.9135 21.8281 25.9589 21.7195 26.0393 21.6394C26.1196 21.5593 26.2285 21.5143 26.342 21.5143Z" fill="#31688F"/>
<path d="M25.1755 23.6057C25.2661 23.387 25.1622 23.1363 24.9434 23.0457C24.7246 22.9551 24.4738 23.0589 24.3832 23.2776C24.2926 23.4963 24.3965 23.747 24.6153 23.8376C24.834 23.9282 25.0848 23.8244 25.1755 23.6057Z" fill="#31688F"/>
<path fill-rule="evenodd" clip-rule="evenodd" d="M22.7619 23.8318C22.8468 23.8318 22.9297 23.857 23.0003 23.9041C23.0708 23.9513 23.1258 24.0183 23.1582 24.0967C23.1906 24.1751 23.199 24.2613 23.1824 24.3445C23.1657 24.4276 23.1247 24.504 23.0646 24.5639C23.0046 24.6238 22.928 24.6645 22.8448 24.6809C22.7615 24.6973 22.6753 24.6886 22.5969 24.656C22.5186 24.6233 22.4517 24.5682 22.4048 24.4976C22.3578 24.4269 22.3329 24.3439 22.3331 24.2591C22.3331 24.2029 22.3442 24.1472 22.3658 24.0953C22.3874 24.0433 22.419 23.9962 22.4588 23.9565C22.4986 23.9168 22.5459 23.8853 22.5979 23.8639C22.6499 23.8425 22.7057 23.8316 22.7619 23.8318Z" fill="#31688F"/>
<path fill-rule="evenodd" clip-rule="evenodd" d="M21.0111 24.8096C21.0959 24.8096 21.1788 24.8347 21.2493 24.8818C21.3198 24.9289 21.3747 24.9958 21.4072 25.0741C21.4397 25.1525 21.4481 25.2386 21.4316 25.3218C21.4151 25.4049 21.3742 25.4813 21.3143 25.5412C21.2543 25.6012 21.1779 25.642 21.0947 25.6585C21.0115 25.6751 20.9253 25.6666 20.847 25.6341C20.7686 25.6017 20.7017 25.5468 20.6545 25.4763C20.6074 25.4058 20.5823 25.3229 20.5823 25.2382C20.5821 25.1818 20.5931 25.126 20.6146 25.0739C20.6361 25.0219 20.6676 24.9746 20.7075 24.9347C20.7473 24.8949 20.7947 24.8633 20.8468 24.8419C20.8989 24.8204 20.9547 24.8094 21.0111 24.8096Z" fill="#31688F"/>
<path fill-rule="evenodd" clip-rule="evenodd" d="M22.2831 56.1571L39.0205 8.58083L36.8011 7.76855L21.8339 56.0121L22.2831 56.1571Z" fill="#FFD600"/>
<path fill-rule="evenodd" clip-rule="evenodd" d="M18.7749 53.5445L48.97 15.6193L47.4091 14.2283L18.3962 53.1865L18.7749 53.5445Z" fill="#FFD600"/>
<path fill-rule="evenodd" clip-rule="evenodd" d="M39.444 0L41.7982 0.742978L39.8099 6.37113L37.5828 5.57682L39.444 0Z" fill="#31688F"/>
<path fill-rule="evenodd" clip-rule="evenodd" d="M54.5974 8.60902L52.6784 7.05505L49.0778 11.8183L50.9108 13.2953L54.5974 8.60902Z" fill="#31688F"/>
<path d="M69.7987 48.8019C69.222 48.8019 68.7792 48.6372 68.4703 48.3078C68.1613 47.9784 68.0068 47.5255 68.0068 46.949V28.3894C68.0068 27.7924 68.1716 27.3394 68.5012 27.0306C68.8307 26.7012 69.2838 26.5365 69.8605 26.5365C70.3754 26.5365 70.7771 26.6395 71.0654 26.8453C71.3744 27.0306 71.6524 27.36 71.8996 27.8335L79.5306 41.9463H78.542L86.173 27.8335C86.4202 27.36 86.6879 27.0306 86.9763 26.8453C87.2647 26.6395 87.6663 26.5365 88.1812 26.5365C88.7579 26.5365 89.2007 26.7012 89.5097 27.0306C89.8186 27.3394 89.9731 27.7924 89.9731 28.3894V46.949C89.9731 47.5255 89.8186 47.9784 89.5097 48.3078C89.2213 48.6372 88.7785 48.8019 88.1812 48.8019C87.6045 48.8019 87.1617 48.6372 86.8527 48.3078C86.5438 47.9784 86.3893 47.5255 86.3893 46.949V32.651H87.069L80.5811 44.4785C80.3751 44.8285 80.1588 45.0859 79.9323 45.2506C79.7057 45.4153 79.3968 45.4976 79.0054 45.4976C78.6141 45.4976 78.2948 45.4153 78.0477 45.2506C77.8005 45.0653 77.5843 44.8079 77.3989 44.4785L70.8492 32.6201H71.5906V46.949C71.5906 47.5255 71.4362 47.9784 71.1272 48.3078C70.8389 48.6372 70.396 48.8019 69.7987 48.8019Z" fill="#31688F"/>
<path d="M95.2921 48.8019C94.6742 48.8019 94.1902 48.6372 93.84 48.3078C93.5105 47.9578 93.3457 47.4637 93.3457 46.8255V35.1524C93.3457 34.4936 93.5105 34.0098 93.84 33.701C94.1902 33.3716 94.6742 33.2069 95.2921 33.2069C95.91 33.2069 96.3837 33.3716 96.7133 33.701C97.0428 34.0098 97.2076 34.4936 97.2076 35.1524V39.2905H103.881V35.1524C103.881 34.4936 104.046 34.0098 104.375 33.701C104.705 33.3716 105.178 33.2069 105.796 33.2069C106.414 33.2069 106.888 33.3716 107.218 33.701C107.568 34.0098 107.743 34.4936 107.743 35.1524V46.8255C107.743 47.4637 107.568 47.9578 107.218 48.3078C106.888 48.6372 106.414 48.8019 105.796 48.8019C105.178 48.8019 104.705 48.6372 104.375 48.3078C104.046 47.9578 103.881 47.4637 103.881 46.8255V42.3169H97.2076V46.8255C97.2076 47.4637 97.0428 47.9578 96.7133 48.3078C96.4043 48.6372 95.9306 48.8019 95.2921 48.8019Z" fill="#31688F"/>
<path d="M117.827 48.8637C116.261 48.8637 114.902 48.5446 113.749 47.9064C112.595 47.2681 111.699 46.3623 111.061 45.1888C110.422 43.9947 110.103 42.5948 110.103 40.989C110.103 39.7743 110.278 38.6934 110.628 37.7464C110.999 36.7788 111.524 35.9553 112.204 35.2759C112.884 34.5759 113.697 34.051 114.645 33.701C115.592 33.3304 116.653 33.1451 117.827 33.1451C119.392 33.1451 120.751 33.4642 121.905 34.1024C123.058 34.7406 123.954 35.6465 124.593 36.82C125.231 37.9935 125.55 39.3831 125.55 40.989C125.55 42.2036 125.365 43.2948 124.994 44.2624C124.644 45.23 124.129 46.0638 123.45 46.7638C122.77 47.4431 121.956 47.9681 121.009 48.3387C120.062 48.6887 119.001 48.8637 117.827 48.8637ZM117.827 45.93C118.589 45.93 119.258 45.7447 119.835 45.3741C120.412 45.0035 120.854 44.458 121.163 43.7374C121.493 42.9962 121.658 42.0801 121.658 40.989C121.658 39.342 121.308 38.117 120.607 37.3141C119.907 36.4906 118.98 36.0788 117.827 36.0788C117.065 36.0788 116.395 36.2641 115.819 36.6347C115.242 36.9847 114.789 37.5303 114.459 38.2714C114.15 38.992 113.996 39.8978 113.996 40.989C113.996 42.6154 114.346 43.8506 115.046 44.6947C115.747 45.5182 116.673 45.93 117.827 45.93Z" fill="#31688F"/>
<path d="M129.84 48.8019C129.222 48.8019 128.738 48.6269 128.388 48.2769C128.058 47.9269 127.894 47.4328 127.894 46.7946V35.6156C127.894 34.9156 128.079 34.3804 128.45 34.0098C128.821 33.6392 129.356 33.4539 130.056 33.4539H137.935C138.491 33.4539 138.903 33.5775 139.17 33.8245C139.438 34.0716 139.572 34.4524 139.572 34.9671C139.572 35.4612 139.438 35.8421 139.17 36.1097C138.903 36.3568 138.491 36.4803 137.935 36.4803H131.756V46.7946C131.756 48.1328 131.117 48.8019 129.84 48.8019Z" fill="#31688F"/>
<path d="M147.698 48.8637C146.133 48.8637 144.774 48.5446 143.62 47.9064C142.467 47.2681 141.571 46.3623 140.932 45.1888C140.294 43.9947 139.975 42.5948 139.975 40.989C139.975 39.7743 140.15 38.6934 140.5 37.7464C140.871 36.7788 141.396 35.9553 142.075 35.2759C142.755 34.5759 143.569 34.051 144.516 33.701C145.464 33.3304 146.524 33.1451 147.698 33.1451C149.264 33.1451 150.623 33.4642 151.776 34.1024C152.93 34.7406 153.826 35.6465 154.464 36.82C155.103 37.9935 155.422 39.3831 155.422 40.989C155.422 42.2036 155.237 43.2948 154.866 44.2624C154.516 45.23 154.001 46.0638 153.321 46.7638C152.641 47.4431 151.828 47.9681 150.88 48.3387C149.933 48.6887 148.872 48.8637 147.698 48.8637ZM147.698 45.93C148.46 45.93 149.13 45.7447 149.706 45.3741C150.283 45.0035 150.726 44.458 151.035 43.7374C151.364 42.9962 151.529 42.0801 151.529 40.989C151.529 39.342 151.179 38.117 150.479 37.3141C149.779 36.4906 148.852 36.0788 147.698 36.0788C146.936 36.0788 146.267 36.2641 145.69 36.6347C145.113 36.9847 144.66 37.5303 144.331 38.2714C144.022 38.992 143.867 39.8978 143.867 40.989C143.867 42.6154 144.217 43.8506 144.918 44.6947C145.618 45.5182 146.545 45.93 147.698 45.93Z" fill="#31688F"/>
<path d="M159.928 48.8019C159.289 48.8019 158.795 48.6269 158.445 48.2769C158.115 47.9064 157.951 47.402 157.951 46.7638V28.7909C157.951 28.1321 158.126 27.638 158.476 27.3086C158.826 26.9586 159.32 26.7836 159.959 26.7836H167.404C169.794 26.7836 171.637 27.3806 172.935 28.5747C174.232 29.7688 174.881 31.4363 174.881 33.5775C174.881 35.7186 174.232 37.3964 172.935 38.6111C171.637 39.8052 169.794 40.4022 167.404 40.4022H161.905V46.7638C161.905 47.402 161.74 47.9064 161.411 48.2769C161.081 48.6269 160.587 48.8019 159.928 48.8019ZM161.905 37.2832H166.786C168.187 37.2832 169.248 36.9744 169.969 36.3568C170.69 35.7186 171.05 34.7921 171.05 33.5775C171.05 32.3628 170.69 31.4466 169.969 30.829C169.248 30.2114 168.187 29.9026 166.786 29.9026H161.905V37.2832Z" fill="#31688F"/>
<path d="M178.297 48.5549C177.679 48.5549 177.206 48.3902 176.876 48.0608C176.547 47.7314 176.382 47.2579 176.382 46.6402V35.1524C176.382 34.4936 176.547 34.0098 176.876 33.701C177.226 33.3716 177.71 33.2069 178.328 33.2069C178.946 33.2069 179.42 33.3716 179.749 33.701C180.079 34.0098 180.244 34.4936 180.244 35.1524V38.4567H184.229C186.227 38.4567 187.73 38.8787 188.74 39.7228C189.77 40.5669 190.284 41.8022 190.284 43.4286C190.284 44.458 190.037 45.3638 189.543 46.1461C189.049 46.9079 188.348 47.5049 187.442 47.9372C186.556 48.349 185.485 48.5549 184.229 48.5549H178.297ZM180.244 46.0226H183.642C184.61 46.0226 185.362 45.8167 185.897 45.405C186.433 44.9726 186.701 44.3241 186.701 43.4595C186.701 42.6154 186.433 41.9977 185.897 41.6066C185.362 41.1948 184.61 40.989 183.642 40.989H180.244V46.0226ZM194.023 48.8019C193.405 48.8019 192.931 48.6372 192.602 48.3078C192.272 47.9578 192.107 47.4637 192.107 46.8255V35.1524C192.107 34.4936 192.272 34.0098 192.602 33.701C192.931 33.3716 193.405 33.2069 194.023 33.2069C194.641 33.2069 195.114 33.3716 195.444 33.701C195.794 34.0098 195.969 34.4936 195.969 35.1524V46.8255C195.969 48.1431 195.32 48.8019 194.023 48.8019Z" fill="#31688F"/>
<path d="M206.207 48.8637C204.6 48.8637 203.2 48.5343 202.005 47.8755C200.831 47.2167 199.925 46.2388 199.286 44.9418C198.648 43.6242 198.328 42.008 198.328 40.0934V37.8391C198.328 35.8009 198.627 34.1024 199.224 32.7437C199.842 31.3643 200.749 30.2629 201.943 29.4394C203.158 28.5953 204.652 27.9571 206.423 27.5247L210.439 26.5365C210.975 26.3924 211.428 26.4233 211.799 26.6292C212.169 26.8145 212.406 27.1644 212.509 27.6791C212.612 28.1938 212.53 28.6364 212.262 29.007C211.994 29.357 211.582 29.5938 211.026 29.7173L206.701 30.7364C205.671 30.9834 204.806 31.3746 204.106 31.9099C203.406 32.4246 202.87 33.0731 202.499 33.8554C202.149 34.6377 201.974 35.5436 201.974 36.5729V38.2405H201.449C201.655 37.3553 202.005 36.5626 202.499 35.8627C203.014 35.1627 203.673 34.6171 204.477 34.226C205.28 33.8142 206.217 33.6083 207.288 33.6083C208.544 33.6083 209.657 33.9171 210.625 34.5348C211.613 35.1318 212.386 35.9862 212.942 37.0979C213.498 38.2096 213.776 39.5375 213.776 41.0816C213.776 42.6668 213.457 44.0462 212.818 45.2197C212.2 46.3726 211.325 47.2681 210.192 47.9064C209.059 48.5446 207.731 48.8637 206.207 48.8637ZM206.052 45.93C206.876 45.93 207.566 45.755 208.122 45.405C208.699 45.0344 209.131 44.4991 209.42 43.7992C209.729 43.0992 209.883 42.2448 209.883 41.236C209.883 39.7331 209.543 38.5802 208.864 37.7773C208.205 36.9538 207.267 36.5421 206.052 36.5421C205.249 36.5421 204.559 36.7273 203.982 37.0979C203.406 37.4479 202.963 37.9626 202.654 38.642C202.365 39.3214 202.221 40.1346 202.221 41.0816C202.221 42.6668 202.551 43.8712 203.21 44.6947C203.89 45.5182 204.837 45.93 206.052 45.93Z" fill="#31688F"/>
<path d="M218.035 48.5549C217.417 48.5549 216.943 48.3902 216.613 48.0608C216.284 47.7314 216.119 47.2579 216.119 46.6402V35.1524C216.119 34.4936 216.284 34.0098 216.613 33.701C216.964 33.3716 217.448 33.2069 218.065 33.2069C218.683 33.2069 219.157 33.3716 219.487 33.701C219.816 34.0098 219.981 34.4936 219.981 35.1524V38.4567H223.966C225.964 38.4567 227.468 38.8787 228.477 39.7228C229.507 40.5669 230.022 41.8022 230.022 43.4286C230.022 44.458 229.775 45.3638 229.28 46.1461C228.786 46.9079 228.086 47.5049 227.179 47.9372C226.294 48.349 225.223 48.5549 223.966 48.5549H218.035ZM219.981 46.0226H223.379C224.347 46.0226 225.099 45.8167 225.635 45.405C226.17 44.9726 226.438 44.3241 226.438 43.4595C226.438 42.6154 226.17 41.9977 225.635 41.6066C225.099 41.1948 224.347 40.989 223.379 40.989H219.981V46.0226ZM233.76 48.8019C233.142 48.8019 232.668 48.6372 232.339 48.3078C232.009 47.9578 231.845 47.4637 231.845 46.8255V35.1524C231.845 34.4936 232.009 34.0098 232.339 33.701C232.668 33.3716 233.142 33.2069 233.76 33.2069C234.378 33.2069 234.852 33.3716 235.181 33.701C235.531 34.0098 235.706 34.4936 235.706 35.1524V46.8255C235.706 48.1431 235.058 48.8019 233.76 48.8019Z" fill="#31688F"/>
<path d="M117.132 68.9334C116.899 68.9334 116.719 68.8703 116.593 68.744C116.467 68.6178 116.403 68.4333 116.403 68.1905V59.7419C116.403 59.4992 116.467 59.3147 116.593 59.1884C116.719 59.0622 116.894 58.9991 117.118 58.9991C117.351 58.9991 117.53 59.0622 117.657 59.1884C117.783 59.3147 117.846 59.4992 117.846 59.7419V61.0092L117.686 60.7033C117.841 60.1789 118.147 59.7614 118.604 59.4506C119.061 59.1302 119.6 58.9699 120.222 58.9699C120.853 58.9699 121.402 59.1204 121.868 59.4215C122.344 59.7225 122.709 60.145 122.961 60.6888C123.224 61.2326 123.355 61.8881 123.355 62.6552C123.355 63.403 123.224 64.0585 122.961 64.6217C122.709 65.1752 122.349 65.6025 121.883 65.9036C121.417 66.1949 120.863 66.3406 120.222 66.3406C119.609 66.3406 119.075 66.1852 118.619 65.8744C118.162 65.5637 117.856 65.151 117.7 64.6363H117.875V68.1905C117.875 68.4333 117.807 68.6178 117.671 68.744C117.545 68.8703 117.365 68.9334 117.132 68.9334ZM119.857 65.2044C120.265 65.2044 120.62 65.1073 120.921 64.913C121.222 64.7188 121.455 64.4324 121.621 64.0536C121.786 63.6749 121.868 63.2088 121.868 62.6552C121.868 61.8201 121.684 61.1889 121.315 60.7616C120.955 60.3343 120.469 60.1207 119.857 60.1207C119.459 60.1207 119.104 60.2178 118.793 60.412C118.492 60.5965 118.259 60.8781 118.094 61.2569C117.929 61.6356 117.846 62.1017 117.846 62.6552C117.846 63.4807 118.031 64.1119 118.4 64.5489C118.769 64.9859 119.255 65.2044 119.857 65.2044Z" fill="#0DB9BB"/>
<path d="M128.103 66.3406C127.384 66.3406 126.762 66.19 126.238 65.889C125.723 65.588 125.319 65.1607 125.028 64.6072C124.737 64.0536 124.591 63.403 124.591 62.6552C124.591 62.0823 124.673 61.5725 124.839 61.1258C125.004 60.6791 125.237 60.2955 125.538 59.975C125.849 59.6448 126.218 59.3972 126.646 59.2321C127.083 59.0573 127.569 58.9699 128.103 58.9699C128.812 58.9699 129.424 59.1204 129.939 59.4215C130.464 59.7225 130.872 60.1498 131.163 60.7033C131.455 61.2472 131.6 61.8978 131.6 62.6552C131.6 63.2185 131.518 63.7283 131.353 64.1847C131.187 64.6411 130.949 65.0296 130.639 65.35C130.337 65.6705 129.968 65.9181 129.531 66.0929C129.104 66.258 128.627 66.3406 128.103 66.3406ZM128.103 65.2044C128.501 65.2044 128.851 65.1073 129.152 64.913C129.453 64.7188 129.686 64.4324 129.852 64.0536C130.026 63.6749 130.114 63.2088 130.114 62.6552C130.114 61.8201 129.929 61.1889 129.56 60.7616C129.191 60.3343 128.705 60.1207 128.103 60.1207C127.695 60.1207 127.34 60.2178 127.039 60.412C126.738 60.5965 126.5 60.8781 126.325 61.2569C126.16 61.6356 126.077 62.1017 126.077 62.6552C126.077 63.4807 126.262 64.1119 126.631 64.5489C127 64.9859 127.491 65.2044 128.103 65.2044Z" fill="#0DB9BB"/>
<path d="M133.982 66.3114C133.749 66.3114 133.569 66.2483 133.443 66.1221C133.317 65.9861 133.253 65.8016 133.253 65.5685V56.581C133.253 56.3382 133.317 56.1537 133.443 56.0275C133.569 55.9013 133.749 55.8381 133.982 55.8381C134.215 55.8381 134.395 55.9013 134.521 56.0275C134.657 56.1537 134.725 56.3382 134.725 56.581V62.2037H134.754L137.48 59.4943C137.635 59.3389 137.776 59.2176 137.902 59.1302C138.028 59.0428 138.194 58.9991 138.398 58.9991C138.602 58.9991 138.757 59.0525 138.864 59.1593C138.971 59.2661 139.024 59.3972 139.024 59.5526C139.024 59.6983 138.951 59.8488 138.806 60.0041L135.92 62.8592V62.1746L139.068 65.3063C139.223 65.4617 139.296 65.6171 139.287 65.7725C139.277 65.9278 139.214 66.0589 139.097 66.1658C138.981 66.2629 138.835 66.3114 138.66 66.3114C138.436 66.3114 138.257 66.2677 138.121 66.1803C137.994 66.0929 137.844 65.9618 137.669 65.787L134.754 62.9611H134.725V65.5685C134.725 66.0638 134.477 66.3114 133.982 66.3114Z" fill="#0DB9BB"/>
<path d="M143.948 66.3406C143.171 66.3406 142.501 66.1949 141.937 65.9036C141.383 65.6025 140.951 65.1801 140.64 64.6363C140.339 64.0828 140.188 63.4273 140.188 62.6698C140.188 61.9318 140.339 61.286 140.64 60.7325C140.941 60.1789 141.354 59.7468 141.879 59.4361C142.403 59.1253 143.001 58.9699 143.671 58.9699C144.167 58.9699 144.609 59.0525 144.997 59.2176C145.386 59.3729 145.716 59.606 145.988 59.9167C146.27 60.2178 146.479 60.5868 146.615 61.0238C146.761 61.4608 146.834 61.9512 146.834 62.495C146.834 62.6601 146.785 62.7863 146.688 62.8737C146.591 62.9514 146.445 62.9903 146.251 62.9903H141.354V62.0872H145.843L145.595 62.2911C145.595 61.8055 145.522 61.3928 145.376 61.0529C145.24 60.713 145.031 60.4557 144.75 60.2809C144.478 60.0964 144.138 60.0041 143.73 60.0041C143.273 60.0041 142.884 60.111 142.564 60.3246C142.253 60.5382 142.015 60.8344 141.85 61.2132C141.685 61.5919 141.602 62.0337 141.602 62.5387V62.6261C141.602 63.4807 141.801 64.1265 142.199 64.5635C142.607 64.9907 143.195 65.2044 143.963 65.2044C144.254 65.2044 144.56 65.1655 144.881 65.0878C145.211 65.0102 145.522 64.8791 145.813 64.6946C145.979 64.5974 146.124 64.5537 146.251 64.5635C146.387 64.5732 146.494 64.6169 146.571 64.6946C146.659 64.7722 146.712 64.8693 146.732 64.9859C146.751 65.1024 146.732 65.2238 146.673 65.35C146.615 65.4666 146.513 65.5734 146.367 65.6705C146.037 65.8939 145.653 66.0638 145.216 66.1803C144.779 66.2872 144.356 66.3406 143.948 66.3406Z" fill="#0DB9BB"/>
<path d="M149.104 62.9174C148.93 62.9174 148.784 62.8592 148.667 62.7426C148.551 62.6261 148.492 62.4853 148.492 62.3202C148.492 62.1454 148.551 62.0046 148.667 61.8978C148.784 61.7813 148.93 61.723 149.104 61.723H152.311C152.476 61.723 152.617 61.7813 152.733 61.8978C152.85 62.0046 152.908 62.1454 152.908 62.3202C152.908 62.4853 152.85 62.6261 152.733 62.7426C152.617 62.8592 152.476 62.9174 152.311 62.9174H149.104Z" fill="#0DB9BB"/>
<path d="M155.6 66.3114C155.357 66.3114 155.172 66.2483 155.046 66.1221C154.92 65.9861 154.857 65.8016 154.857 65.5685V59.7419C154.857 59.4992 154.92 59.3147 155.046 59.1884C155.172 59.0622 155.347 58.9991 155.571 58.9991C155.804 58.9991 155.979 59.0622 156.095 59.1884C156.222 59.3147 156.285 59.4992 156.285 59.7419V60.8053H156.139C156.294 60.2226 156.581 59.7808 156.999 59.4798C157.417 59.1787 157.951 59.0039 158.602 58.9554C158.777 58.9456 158.913 58.9893 159.01 59.0865C159.117 59.1836 159.175 59.3341 159.185 59.538C159.204 59.7419 159.16 59.907 159.054 60.0333C158.947 60.1498 158.782 60.2178 158.558 60.2372L158.281 60.2663C157.65 60.3246 157.169 60.5237 156.838 60.8636C156.508 61.2035 156.343 61.6696 156.343 62.2619V65.5685C156.343 65.8016 156.28 65.9861 156.154 66.1221C156.037 66.2483 155.852 66.3114 155.6 66.3114Z" fill="#0DB9BB"/>
<path d="M163.283 66.3406C162.564 66.3406 161.942 66.19 161.417 65.889C160.903 65.588 160.499 65.1607 160.208 64.6072C159.916 64.0536 159.771 63.403 159.771 62.6552C159.771 62.0823 159.853 61.5725 160.018 61.1258C160.184 60.6791 160.417 60.2955 160.718 59.975C161.029 59.6448 161.398 59.3972 161.825 59.2321C162.263 59.0573 162.748 58.9699 163.283 58.9699C163.992 58.9699 164.604 59.1204 165.119 59.4215C165.644 59.7225 166.052 60.1498 166.343 60.7033C166.635 61.2472 166.78 61.8978 166.78 62.6552C166.78 63.2185 166.698 63.7283 166.533 64.1847C166.367 64.6411 166.129 65.0296 165.818 65.35C165.517 65.6705 165.148 65.9181 164.711 66.0929C164.283 66.258 163.807 66.3406 163.283 66.3406ZM163.283 65.2044C163.681 65.2044 164.031 65.1073 164.332 64.913C164.633 64.7188 164.866 64.4324 165.032 64.0536C165.206 63.6749 165.294 63.2088 165.294 62.6552C165.294 61.8201 165.109 61.1889 164.74 60.7616C164.371 60.3343 163.885 60.1207 163.283 60.1207C162.875 60.1207 162.52 60.2178 162.219 60.412C161.918 60.5965 161.68 60.8781 161.505 61.2569C161.34 61.6356 161.257 62.1017 161.257 62.6552C161.257 63.4807 161.442 64.1119 161.811 64.5489C162.18 64.9859 162.671 65.2044 163.283 65.2044Z" fill="#0DB9BB"/>
<path d="M171.523 66.3406C170.804 66.3406 170.182 66.19 169.657 65.889C169.142 65.588 168.739 65.1607 168.448 64.6072C168.156 64.0536 168.011 63.403 168.011 62.6552C168.011 62.0823 168.093 61.5725 168.258 61.1258C168.424 60.6791 168.657 60.2955 168.958 59.975C169.269 59.6448 169.638 59.3972 170.065 59.2321C170.503 59.0573 170.988 58.9699 171.523 58.9699C172.232 58.9699 172.844 59.1204 173.359 59.4215C173.884 59.7225 174.292 60.1498 174.583 60.7033C174.874 61.2472 175.02 61.8978 175.02 62.6552C175.02 63.2185 174.938 63.7283 174.772 64.1847C174.607 64.6411 174.369 65.0296 174.058 65.35C173.757 65.6705 173.388 65.9181 172.951 66.0929C172.523 66.258 172.047 66.3406 171.523 66.3406ZM171.523 65.2044C171.921 65.2044 172.271 65.1073 172.572 64.913C172.873 64.7188 173.106 64.4324 173.271 64.0536C173.446 63.6749 173.534 63.2088 173.534 62.6552C173.534 61.8201 173.349 61.1889 172.98 60.7616C172.611 60.3343 172.125 60.1207 171.523 60.1207C171.115 60.1207 170.76 60.2178 170.459 60.412C170.158 60.5965 169.92 60.8781 169.745 61.2569C169.58 61.6356 169.497 62.1017 169.497 62.6552C169.497 63.4807 169.682 64.1119 170.051 64.5489C170.42 64.9859 170.911 65.2044 171.523 65.2044Z" fill="#0DB9BB"/>
<path d="M177.431 66.3114C177.198 66.3114 177.018 66.2483 176.892 66.1221C176.765 65.9861 176.702 65.8016 176.702 65.5685V59.7419C176.702 59.4992 176.765 59.3147 176.892 59.1884C177.018 59.0622 177.193 58.9991 177.416 58.9991C177.65 58.9991 177.824 59.0622 177.941 59.1884C178.067 59.3147 178.13 59.4992 178.13 59.7419V60.9364L177.97 60.6159C178.164 60.1013 178.466 59.6983 178.874 59.4069C179.282 59.1156 179.772 58.9699 180.346 58.9699C180.938 58.9699 181.419 59.1107 181.788 59.3924C182.157 59.674 182.41 60.1061 182.546 60.6888H182.342C182.527 60.1547 182.842 59.7371 183.289 59.4361C183.736 59.1253 184.256 58.9699 184.849 58.9699C185.393 58.9699 185.84 59.0767 186.189 59.2904C186.539 59.4943 186.801 59.8099 186.976 60.2372C187.151 60.6548 187.239 61.184 187.239 61.825V65.5685C187.239 65.8016 187.171 65.9861 187.035 66.1221C186.908 66.2483 186.729 66.3114 186.495 66.3114C186.262 66.3114 186.082 66.2483 185.956 66.1221C185.83 65.9861 185.767 65.8016 185.767 65.5685V61.8978C185.767 61.2957 185.66 60.8539 185.446 60.5722C185.242 60.2906 184.902 60.1498 184.426 60.1498C183.892 60.1498 183.469 60.3343 183.158 60.7033C182.847 61.0724 182.692 61.5822 182.692 62.2328V65.5685C182.692 65.8016 182.629 65.9861 182.502 66.1221C182.376 66.2483 182.196 66.3114 181.963 66.3114C181.73 66.3114 181.545 66.2483 181.409 66.1221C181.283 65.9861 181.22 65.8016 181.22 65.5685V61.8978C181.22 61.2957 181.118 60.8539 180.914 60.5722C180.71 60.2906 180.37 60.1498 179.894 60.1498C179.359 60.1498 178.937 60.3343 178.626 60.7033C178.325 61.0724 178.174 61.5822 178.174 62.2328V65.5685C178.174 66.0638 177.926 66.3114 177.431 66.3114Z" fill="#0DB9BB"/>
</svg>